<svg viewBox="0 0 229 55" xmlns:xlink="http://www.w3.org/1999/xlink" xmlns="http://www.w3.org/2000/svg"><path d="M34.116 9.733c-4.687 1.179-5.826 8.349-5.826 8.349 6.226-5.053 12.451-5.053 17.11 2.26.53-5.292-4.625-11.195-11.284-10.61z" fill="url(#a)"/><path d="M27.76 48.303c4.622-1.194 6.265-8.616 6.265-8.616-6.14 5.116-12.279 5.116-16.873-2.288-.522 5.358 4.04 11.498 10.608 10.904z" fill="url(#b)"/><use transform="translate(-1.852 -1.243) scale(1.0233)" width="100%" height="100%" xlink:href="#c"/><use transform="translate(-1.852 -1.243) scale(1.0233)" width="100%" height="100%" fill="url(#d)" stroke="#fff" stroke-dashoffset="2.941" stroke-linejoin="round" stroke-miterlimit="3.6" stroke-width=".47" xlink:href="#c"/><path d="M27.695 48.307s-3.132.46-6.12-1.706c-4.12-3.346-5.628-6.313-3.686-16.372l4.413-.128L12.48 11.99S8.713 15.282.787 28.59l4.06.44s-.818 6.579 5.894 14.731c6.713 8.153 16.954 4.542 16.954 4.542z" fill="#737373"/><path d="M34 9.76s3.12-.325 6.104 1.84c4.115 3.341 5.61 6.302 3.681 16.346l-4.408.127 9.811 18.082s3.762-3.289 11.677-16.575l-4.055-.438s.819-6.57-5.887-14.708C44.218 6.295 34 9.76 34 9.76z" fill="#595959"/><defs><radialGradient id="d" cx="36.687" cy="39.56" r="16.838" gradientTransform="matrix(5.1596 -.18009 .13014 3.7284 -171 -97.53)" gradientUnits="userSpaceOnUse" xlink:href="#e"><stop stop-color="#42acd9" offset="0"/><stop stop-color="#fff" offset="1"/></radialGradient><radialGradient id="b" cx="19.121" cy="50.108" r="8.424" gradientTransform="matrix(4.4291 -.41527 .28179 3.0055 -82.336 -88.054)" gradientUnits="userSpaceOnUse" xlink:href="#f"/><radialGradient id="a" cx="19.121" cy="50.108" r="8.424" gradientTransform="matrix(-4.4913 .41011 -.28575 -2.9681 146.29 144.24)" gradientUnits="userSpaceOnUse" xlink:href="#f"/><radialGradient id="g" cx="79.557" cy="45.891" r="15.555" gradientTransform="matrix(.07785 -.32508 .91593 .21934 52.649 61.31)" gradientUnits="userSpaceOnUse"><stop offset="0"/><stop stop-color="#787878" offset=".18"/><stop stop-color="#9c9c9c" offset=".37"/><stop stop-color="#fff" offset="1"/></radialGradient><linearGradient id="f"><stop offset="0"/><stop stop-color="#fff" offset="1"/></linearGradient><linearGradient id="e" x1="16.74" x2="34.264" y1="41.591" y2="28.634" gradientUnits="userSpaceOnUse"><stop stop-color="#42acd9" offset="0"/><stop stop-color="#fff" offset="1"/></linearGradient><path id="c" d="M18.948 20.3a16.6 16.6 0 0 1 23.047-4.489c7.603 5.127 9.612 15.45 4.486 23.057a16.6 16.6 0 0 1-23.047 4.489c-7.603-5.127-9.612-15.45-4.486-23.057z"/></defs><path d="M27.696 48.303s-3.115.259-6.085-1.893c-4.096-3.328-5.584-6.276-3.664-16.275l4.388-.127-9.764-18.004S8.826 15.28.947 28.506l4.036.436s-.824 6.539 5.86 14.645c6.682 8.106 16.852 4.72 16.852 4.72zM33.999 9.761s3.108-.178 6.08 1.975c4.1 3.329 5.587 6.278 3.668 16.28l-4.39.127 9.77 18.01s3.747-3.275 11.63-16.509l-4.038-.436s.825-6.542-5.863-14.65C44.168 6.45 34 9.76 34 9.76z" fill="#fff"/><g stroke-width="1.092"><path d="M72.008 12.879h-3.972v33.947H102c-4.14-1.341-4.797-2.134-6.687-3.537-.716.017-23.305 0-23.305 0z" fill="url(#g)"/><path d="M117.56 29.801c-83.862-21.319-41.931-10.659 0 0zm20.845 9.51h3.384V36.1h-3.384V12.873h-3.867l-16.742 24.728-1.14 1.698h18.164v7.407h3.585V39.3zm-3.584-22.002v18.935h-12.308l12.64-18.935c.47-.564-.91.128-.332 0zm7.182-4.43v33.844H153.7c10.092 0 16.033-7.313 16.033-16.56 0-9.058-5.941-17.282-16.033-17.282h-11.695zm3.963 30.259V16.512h7.64c7.544 0 12.214 6.387 12.214 13.698 0 7.407-4.67 12.926-12.214 12.926h-7.64zm26.395 3.6c.928 0 1.664-.64 1.664-1.503 0-.993-.736-1.536-1.664-1.536-.895 0-1.63.546-1.63 1.536 0 .863.735 1.503 1.63 1.503zm14.618-11.14c-.958-3.36-3.996-5.055-7.131-5.088-4.03-.033-8.188 2.655-8.188 8.03 0 5.312 4.094 8.032 8.122 8.032 3.232 0 6.43-1.79 7.357-5.44h-2.432c-.83 2.177-2.846 3.232-4.89 3.232-2.785 0-5.63-2.016-5.63-5.823 0-3.84 2.943-5.792 5.757-5.792 1.95 0 3.806.928 4.637 2.85h2.398zm16.663 2.975c0-10.72-16.247-10.72-16.247 0 0 10.719 16.247 10.655 16.247 0zm-13.72 0c0-7.84 11.226-7.84 11.226 0 0 7.871-11.226 7.871-11.226 0zm39.147 7.742v-9.181c0-3.552-1.215-6.56-5.34-6.56-2.56 0-4.895 1.056-5.885 3.328-.607-2.176-2.205-3.328-4.766-3.328-2.205 0-4.094.705-5.213 2.752 0-3.04-1.919-2.848-4.094-2.496l.033 1.823c1.631-.16 1.79.437 1.79 2.496v11.166h2.495v-8.971c0-2.817 1.631-4.703 4.318-4.703 2.687 0 3.581 2.015 3.581 4.607v9.055h2.495v-8.98c0-2.752 1.983-4.673 4.541-4.673 2.591 0 3.444 2.322 3.453 4.786l.034 8.875h2.559z" fill="#fff"/><path d="M119.26 29.801c0-10.474-7.5-17.079-16.743-17.079-9.243 0-16.743 6.51-16.743 17.078 0 10.521 7.405 17.031 16.695 17.031 9.951 0 16.791-7.03 16.791-17.031zm-29.523 0c0-8.115 5.612-13.494 12.78-13.494 7.31 0 12.781 5.473 12.781 13.494S109.733 43.2 102.47 43.2c-7.214 0-12.733-5.379-12.733-13.399z" fill="#fff"/></g></svg>