<?xml version="1.0" encoding="utf-8"?>
<!-- Generator: Adobe Illustrator 24.0.2, SVG Export Plug-In . SVG Version: 6.00 Build 0)  -->
<svg version="1.1" id="Layer_1" xmlns="http://www.w3.org/2000/svg" xmlns:xlink="http://www.w3.org/1999/xlink" x="0px" y="0px"
	 viewBox="0 0 493.2 94.3" style="enable-background:new 0 0 493.2 94.3;" xml:space="preserve">
<style type="text/css">
	.st0{fill:#465A64;}
	.st1{fill:#20AE4A;}
	.st2{fill:#FFFFFF;}
</style>
<g>
	<path class="st0" d="M145.5,37.2l-10.1,2.1c-0.7-4.1-4-6.1-7.3-6.1c-3.4,0-5.6,2-5.6,4.4c0,1.8,0.7,3.1,3.4,3.6l8.7,2
		C141.8,45,146,49.1,146,56c0,9.3-7.9,14.1-17.2,14.1c-9.4,0-17.1-4.7-18.2-13.2l10.6-2.1c1.1,4.5,4,6.4,8.2,6.4
		c3.9,0,6.2-1.8,6.2-4.5c0-2-0.9-3.2-3.9-3.8l-8.7-2c-6-1.4-11.2-4.7-11.2-12.6c0-8.5,6.7-13.7,16.5-13.7
		C137.4,24.6,144,29.3,145.5,37.2z"/>
	<path class="st0" d="M184.7,37.2l-10.1,2.1c-0.7-4.1-4-6.1-7.3-6.1c-3.4,0-5.6,2-5.6,4.4c0,1.8,0.7,3.1,3.4,3.6l8.7,2
		c7.2,1.7,11.5,5.8,11.5,12.7c0,9.3-7.9,14.1-17.2,14.1c-9.4,0-17.1-4.7-18.2-13.2l10.6-2.1c1.1,4.5,4,6.4,8.2,6.4
		c3.9,0,6.2-1.8,6.2-4.5c0-2-0.9-3.2-3.9-3.8l-8.7-2c-6-1.4-11.2-4.7-11.2-12.6c0-8.5,6.7-13.7,16.5-13.7
		C176.6,24.6,183.2,29.3,184.7,37.2z"/>
	<path class="st0" d="M222.2,69.2h-30.8V25.6h10.3v34.2h20.5V69.2z"/>
	<path class="st0" d="M252.6,44.2h19.5v9.4h-19.5v15.6h-10.3V25.6h32.2V35h-22V44.2z"/>
	<path class="st0" d="M311,52.8c0,10.3-7.8,17.2-17.1,17.2c-9.5,0-17.3-6.9-17.3-17.2c0-10.3,7.8-17.2,17.3-17.2
		C303.1,35.7,311,42.6,311,52.8z M301.4,52.8c0-5.1-3.7-8.5-7.5-8.5c-4,0-7.7,3.4-7.7,8.5c0,5.1,3.7,8.5,7.7,8.5
		C297.7,61.3,301.4,58,301.4,52.8z"/>
	<path class="st0" d="M339.1,36.3l-0.4,10.4h-1.8c-7,0-10.8,3.8-10.8,12.2v10.2h-10V36.5h10v6.2c2.2-3.9,5.7-6.7,10.8-6.7
		C337.8,36.1,338.4,36.1,339.1,36.3z"/>
	<path class="st0" d="M368.1,44.2h19.5v9.4h-19.5v15.6h-10.3V25.6H390V35h-22V44.2z"/>
	<path class="st0" d="M417.4,36.3l-0.4,10.4h-1.8c-7,0-10.8,3.8-10.8,12.2v10.2h-10V36.5h10v6.2c2.2-3.9,5.7-6.7,10.8-6.7
		C416,36.1,416.6,36.1,417.4,36.3z"/>
	<path class="st0" d="M452,55.5h-22.9c0.8,3.9,3.4,6.3,6.7,6.3c2.3,0,5-0.6,6.7-3.8l8.8,1.9c-2.7,6.9-8.3,10.2-15.5,10.2
		c-9,0-16.5-7-16.5-17.3c0-10.3,7.5-17.3,16.6-17.3c8.8,0,15.9,6.6,16.1,17.3V55.5z M429.3,49.1h12.9c-0.9-3.5-3.4-5.1-6.3-5.1
		C433.1,44,430.3,45.8,429.3,49.1z"/>
	<path class="st0" d="M487.8,55.5h-22.9c0.8,3.9,3.4,6.3,6.7,6.3c2.3,0,5-0.6,6.7-3.8l8.8,1.9c-2.7,6.9-8.3,10.2-15.5,10.2
		c-9,0-16.5-7-16.5-17.3c0-10.3,7.5-17.3,16.6-17.3c8.8,0,15.9,6.6,16.1,17.3V55.5z M465.1,49.1H478c-0.9-3.5-3.4-5.1-6.3-5.1
		C468.9,44,466.1,45.8,465.1,49.1z"/>
</g>
<path class="st1" d="M66.6,88.5c-17,0-34.1,0-51.1,0c-0.1-0.1-0.2-0.1-0.3-0.2c-4.5-0.8-8.2-4.5-8-9.4c0.2-7.7,0-15.4,0-23.1
	c0-2.8,0-5.5,0-8.3c0-1.7,0.8-3.3,2-4.7c1.5-1.7,3.5-2.8,5.9-3.4c1.6,0,3.2-0.1,4.8-0.1c2.4,0,4.8,0,7.2,0c0.3,0,0.6,0,0.9,0
	c8.7,0,17.4,0,26.1,0c0.3,0,0.6,0,0.9,0c4,0.1,8,0.1,12,0.2c0.1,0,0.1,0.1,0.2,0.1c4.5,0.9,8,4.6,7.8,9.2c-0.2,4,0,8,0,12.1
	c0,6.4,0,12.8,0,19.2c0,3.7-3,6.9-7,8C67.5,88.2,67,88.3,66.6,88.5z M41,77.9c1.3,0,2.6,0,3.8,0c1.6,0,2.4-0.9,2.2-2.3
	c-0.4-2.8-0.9-5.6-1.4-8.4c-0.1-0.5,0-0.8,0.6-1.1c5.9-3.2,6.5-10.3,1.2-14.2c-4.5-3.3-11-2.5-14.5,1.8c-3.3,4-1.8,9.8,3.1,12.4
	c0.6,0.3,0.7,0.7,0.6,1.3c-0.5,2.8-0.9,5.6-1.4,8.4c-0.2,1.3,0.7,2.2,2.2,2.2C38.6,78,39.8,77.9,41,77.9z"/>
<path class="st0" d="M15.1,39.5c0-4.6-0.1-9.3,0.1-13.9c0.2-5,2.4-9.4,6.1-13.2c4.4-4.5,9.9-7,16.5-7.8c0.2,0,0.4-0.1,0.6-0.2
	c1.7,0,3.5,0,5.2,0C44.9,4.6,46,4.7,47.1,5c10.1,2.4,16.5,8.1,19.2,16.9c0.5,1.8,0.7,3.7,0.7,5.5c0.1,4,0,8,0,12.1
	c-4-0.1-8-0.1-12-0.2c0-4.4,0.1-8.8-0.1-13.2c-0.4-6.3-6.6-11.2-13.8-11.3c-7.3,0-13.5,4.9-13.9,11.3c-0.3,4.4-0.1,8.8-0.1,13.2
	c-2.4,0-4.8,0-7.2,0C18.4,39.4,16.7,39.5,15.1,39.5z"/>
<path class="st2" d="M41,77.9c-1.2,0-2.4,0-3.6,0c-1.6,0-2.4-0.9-2.2-2.2c0.4-2.8,0.9-5.6,1.4-8.4c0.1-0.6,0-0.9-0.6-1.3
	c-4.9-2.6-6.3-8.4-3.1-12.4c3.5-4.3,10-5.1,14.5-1.8c5.3,3.9,4.8,11.1-1.2,14.2c-0.6,0.3-0.7,0.6-0.6,1.1c0.5,2.8,1,5.6,1.4,8.4
	c0.2,1.4-0.6,2.2-2.2,2.3C43.6,77.9,42.3,77.9,41,77.9z"/>
</svg>
